<mxfile host="Electron" modified="2024-03-12T15:13:14.704Z" agent="Mozilla/5.0 (Macintosh; Intel Mac OS X 10_15_7) AppleWebKit/537.36 (KHTML, like Gecko) draw.io/22.1.21 Chrome/120.0.6099.109 Electron/28.1.0 Safari/537.36" etag="CJcKX7I47YFffbNJbw9t" version="22.1.21" type="device">
  <diagram id="Wp9XUcJQmJY8cqTNvZHA" name="Page-1">
    <mxGraphModel dx="1114" dy="1192" grid="1" gridSize="10" guides="1" tooltips="1" connect="1" arrows="1" fold="1" page="1" pageScale="1" pageWidth="850" pageHeight="1100" background="none" math="1" shadow="0">
      <root>
        <mxCell id="0" />
        <mxCell id="1" parent="0" />
        <mxCell id="bcMPzDybFFXwjX1JHrY_-4" style="edgeStyle=orthogonalEdgeStyle;rounded=0;orthogonalLoop=1;jettySize=auto;html=1;exitX=0.5;exitY=1;exitDx=0;exitDy=0;entryX=0.5;entryY=0;entryDx=0;entryDy=0;strokeWidth=2;" edge="1" parent="1" source="PFPhXARDNl8WBqTMMCJW-1" target="PFPhXARDNl8WBqTMMCJW-15">
          <mxGeometry relative="1" as="geometry">
            <mxPoint x="425.5" y="355" as="targetPoint" />
          </mxGeometry>
        </mxCell>
        <mxCell id="bcMPzDybFFXwjX1JHrY_-12" style="edgeStyle=orthogonalEdgeStyle;rounded=0;orthogonalLoop=1;jettySize=auto;html=1;exitX=1;exitY=0.5;exitDx=0;exitDy=0;strokeWidth=2;" edge="1" parent="1" source="PFPhXARDNl8WBqTMMCJW-1" target="PFPhXARDNl8WBqTMMCJW-10">
          <mxGeometry relative="1" as="geometry" />
        </mxCell>
        <mxCell id="PFPhXARDNl8WBqTMMCJW-1" value="\(z_\tau(\alpha, a |h)\)" style="rounded=1;whiteSpace=wrap;html=1;strokeWidth=2;fontStyle=1;fontSize=13;" parent="1" vertex="1">
          <mxGeometry x="385" y="260" width="80" height="60" as="geometry" />
        </mxCell>
        <mxCell id="bcMPzDybFFXwjX1JHrY_-2" style="edgeStyle=orthogonalEdgeStyle;rounded=0;orthogonalLoop=1;jettySize=auto;html=1;exitX=1;exitY=0.5;exitDx=0;exitDy=0;entryX=0;entryY=0.5;entryDx=0;entryDy=0;strokeWidth=2;" edge="1" parent="1" source="PFPhXARDNl8WBqTMMCJW-7" target="PFPhXARDNl8WBqTMMCJW-1">
          <mxGeometry relative="1" as="geometry" />
        </mxCell>
        <mxCell id="PFPhXARDNl8WBqTMMCJW-7" value="\(h_\tau(a)\)" style="rounded=1;whiteSpace=wrap;html=1;strokeWidth=2;fontStyle=1;fontSize=13;" parent="1" vertex="1">
          <mxGeometry x="272.5" y="260" width="80" height="60" as="geometry" />
        </mxCell>
        <mxCell id="bcMPzDybFFXwjX1JHrY_-15" style="edgeStyle=orthogonalEdgeStyle;rounded=0;orthogonalLoop=1;jettySize=auto;html=1;exitX=0.5;exitY=1;exitDx=0;exitDy=0;entryX=0.5;entryY=0;entryDx=0;entryDy=0;strokeWidth=2;" edge="1" parent="1" source="PFPhXARDNl8WBqTMMCJW-10" target="PFPhXARDNl8WBqTMMCJW-37">
          <mxGeometry relative="1" as="geometry">
            <mxPoint x="609" y="570" as="targetPoint" />
          </mxGeometry>
        </mxCell>
        <mxCell id="PFPhXARDNl8WBqTMMCJW-10" value="MoI, \(\zeta \)&lt;br&gt;&lt;br&gt;\( \zeta \sim M_\tau(a|h)\)" style="rounded=1;whiteSpace=wrap;html=1;strokeWidth=2;fontStyle=1;fontSize=13;spacingBottom=0;align=center;spacing=3;" parent="1" vertex="1">
          <mxGeometry x="556.25" y="250" width="157.5" height="80" as="geometry" />
        </mxCell>
        <mxCell id="bcMPzDybFFXwjX1JHrY_-11" style="edgeStyle=orthogonalEdgeStyle;rounded=0;orthogonalLoop=1;jettySize=auto;html=1;exitX=0.5;exitY=1;exitDx=0;exitDy=0;entryX=0.5;entryY=0;entryDx=0;entryDy=0;strokeWidth=2;" edge="1" parent="1" source="PFPhXARDNl8WBqTMMCJW-15" target="PFPhXARDNl8WBqTMMCJW-33">
          <mxGeometry relative="1" as="geometry" />
        </mxCell>
        <mxCell id="PFPhXARDNl8WBqTMMCJW-15" value="&lt;span style=&quot;font-size: 13px&quot;&gt;AoI, \(\alpha\)&lt;br&gt;&lt;/span&gt;&lt;br style=&quot;font-size: 13px&quot;&gt;&lt;span style=&quot;font-size: 13px&quot;&gt;\(\alpha \sim A_\tau(a|h) \)&lt;/span&gt;" style="rounded=1;whiteSpace=wrap;html=1;strokeWidth=2;fontStyle=1;fontSize=13;" parent="1" vertex="1">
          <mxGeometry x="352.5" y="342" width="145" height="80" as="geometry" />
        </mxCell>
        <mxCell id="bcMPzDybFFXwjX1JHrY_-14" style="edgeStyle=orthogonalEdgeStyle;rounded=0;orthogonalLoop=1;jettySize=auto;html=1;exitX=1;exitY=0.5;exitDx=0;exitDy=0;strokeWidth=2;" edge="1" parent="1" source="PFPhXARDNl8WBqTMMCJW-33" target="PFPhXARDNl8WBqTMMCJW-37">
          <mxGeometry relative="1" as="geometry" />
        </mxCell>
        <mxCell id="PFPhXARDNl8WBqTMMCJW-33" value="Clonal Densities, \(\xi\)&lt;br&gt;&lt;br style=&quot;font-size: 13px&quot;&gt;\( \xi \sim P_\tau(a|h) \)" style="rounded=1;whiteSpace=wrap;html=1;strokeWidth=2;fontStyle=1;fontSize=13;" parent="1" vertex="1">
          <mxGeometry x="340" y="450" width="170" height="80" as="geometry" />
        </mxCell>
        <mxCell id="PFPhXARDNl8WBqTMMCJW-37" value="Parasite Densities, \(\xi\)&lt;br style=&quot;font-size: 13px&quot;&gt;&lt;br&gt;\(\xi \sim B_\tau(a|h)\)" style="rounded=1;whiteSpace=wrap;html=1;strokeWidth=2;fontStyle=1;fontSize=13;" parent="1" vertex="1">
          <mxGeometry x="540" y="450" width="190" height="80" as="geometry" />
        </mxCell>
        <mxCell id="bcMPzDybFFXwjX1JHrY_-29" style="edgeStyle=orthogonalEdgeStyle;rounded=0;orthogonalLoop=1;jettySize=auto;html=1;exitX=0.5;exitY=1;exitDx=0;exitDy=0;strokeWidth=2;" edge="1" parent="1" source="bcMPzDybFFXwjX1JHrY_-19" target="PFPhXARDNl8WBqTMMCJW-1">
          <mxGeometry relative="1" as="geometry" />
        </mxCell>
        <mxCell id="bcMPzDybFFXwjX1JHrY_-19" value="&lt;meta charset=&quot;utf-8&quot;&gt;&lt;span style=&quot;color: rgb(0, 0, 0); font-family: Helvetica; font-size: 18px; font-style: normal; font-variant-ligatures: normal; font-variant-caps: normal; font-weight: 700; letter-spacing: normal; orphans: 2; text-align: center; text-indent: 0px; text-transform: none; widows: 2; word-spacing: 0px; -webkit-text-stroke-width: 0px; background-color: rgb(251, 251, 251); text-decoration-thickness: initial; text-decoration-style: initial; text-decoration-color: initial; float: none; display: inline !important;&quot;&gt;\(\frac{\partial z}{da} +\frac{\partial z}{d \alpha} \)&lt;/span&gt;" style="shape=hexagon;perimeter=hexagonPerimeter2;whiteSpace=wrap;html=1;fixedSize=1;strokeWidth=2;" vertex="1" parent="1">
          <mxGeometry x="365" y="170" width="120" height="60" as="geometry" />
        </mxCell>
        <mxCell id="bcMPzDybFFXwjX1JHrY_-31" style="edgeStyle=orthogonalEdgeStyle;rounded=0;orthogonalLoop=1;jettySize=auto;html=1;exitX=1;exitY=0.5;exitDx=0;exitDy=0;entryX=0;entryY=0.5;entryDx=0;entryDy=0;strokeWidth=2;" edge="1" parent="1" source="bcMPzDybFFXwjX1JHrY_-20" target="PFPhXARDNl8WBqTMMCJW-7">
          <mxGeometry relative="1" as="geometry" />
        </mxCell>
        <mxCell id="bcMPzDybFFXwjX1JHrY_-20" value="&lt;meta charset=&quot;utf-8&quot;&gt;&lt;span style=&quot;color: rgb(0, 0, 0); font-family: Helvetica; font-size: 13px; font-style: normal; font-variant-ligatures: normal; font-variant-caps: normal; font-weight: 700; letter-spacing: normal; orphans: 2; text-align: center; text-indent: 0px; text-transform: none; widows: 2; word-spacing: 0px; -webkit-text-stroke-width: 0px; background-color: rgb(251, 251, 251); text-decoration-thickness: initial; text-decoration-style: initial; text-decoration-color: initial; float: none; display: inline !important;&quot;&gt;\(h(t)\)&lt;/span&gt;" style="shape=hexagon;perimeter=hexagonPerimeter2;whiteSpace=wrap;html=1;fixedSize=1;strokeWidth=2;" vertex="1" parent="1">
          <mxGeometry x="150" y="230" width="80" height="50" as="geometry" />
        </mxCell>
        <mxCell id="bcMPzDybFFXwjX1JHrY_-30" style="edgeStyle=orthogonalEdgeStyle;rounded=0;orthogonalLoop=1;jettySize=auto;html=1;exitX=1;exitY=0.5;exitDx=0;exitDy=0;entryX=0;entryY=0.5;entryDx=0;entryDy=0;strokeWidth=2;" edge="1" parent="1" source="bcMPzDybFFXwjX1JHrY_-21" target="PFPhXARDNl8WBqTMMCJW-7">
          <mxGeometry relative="1" as="geometry" />
        </mxCell>
        <mxCell id="bcMPzDybFFXwjX1JHrY_-21" value="&lt;meta charset=&quot;utf-8&quot;&gt;&lt;span style=&quot;color: rgb(0, 0, 0); font-family: Helvetica; font-size: 13px; font-style: normal; font-variant-ligatures: normal; font-variant-caps: normal; font-weight: 700; letter-spacing: normal; orphans: 2; text-align: center; text-indent: 0px; text-transform: none; widows: 2; word-spacing: 0px; -webkit-text-stroke-width: 0px; background-color: rgb(251, 251, 251); text-decoration-thickness: initial; text-decoration-style: initial; text-decoration-color: initial; float: none; display: inline !important;&quot;&gt;\(\omega(a)\)&lt;/span&gt;" style="shape=hexagon;perimeter=hexagonPerimeter2;whiteSpace=wrap;html=1;fixedSize=1;strokeWidth=2;" vertex="1" parent="1">
          <mxGeometry x="150" y="300" width="80" height="50" as="geometry" />
        </mxCell>
        <mxCell id="bcMPzDybFFXwjX1JHrY_-28" style="edgeStyle=orthogonalEdgeStyle;rounded=0;orthogonalLoop=1;jettySize=auto;html=1;exitX=1;exitY=0.5;exitDx=0;exitDy=0;strokeWidth=2;" edge="1" parent="1" source="bcMPzDybFFXwjX1JHrY_-24" target="PFPhXARDNl8WBqTMMCJW-33">
          <mxGeometry relative="1" as="geometry" />
        </mxCell>
        <mxCell id="bcMPzDybFFXwjX1JHrY_-24" value="\(\mu = F_\mu(\alpha) \)" style="shape=hexagon;perimeter=hexagonPerimeter2;whiteSpace=wrap;html=1;fixedSize=1;strokeWidth=2;" vertex="1" parent="1">
          <mxGeometry x="150" y="430" width="120" height="50" as="geometry" />
        </mxCell>
        <mxCell id="bcMPzDybFFXwjX1JHrY_-27" style="edgeStyle=orthogonalEdgeStyle;rounded=0;orthogonalLoop=1;jettySize=auto;html=1;entryX=0;entryY=0.5;entryDx=0;entryDy=0;strokeWidth=2;" edge="1" parent="1" source="bcMPzDybFFXwjX1JHrY_-25" target="PFPhXARDNl8WBqTMMCJW-33">
          <mxGeometry relative="1" as="geometry" />
        </mxCell>
        <mxCell id="bcMPzDybFFXwjX1JHrY_-25" value="\( \xi \sim \Omega(\mu)\)" style="shape=hexagon;perimeter=hexagonPerimeter2;whiteSpace=wrap;html=1;fixedSize=1;strokeWidth=2;" vertex="1" parent="1">
          <mxGeometry x="150" y="500" width="120" height="50" as="geometry" />
        </mxCell>
      </root>
    </mxGraphModel>
  </diagram>
</mxfile>
